<svg id="Layer_1" data-name="Layer 1" xmlns="http://www.w3.org/2000/svg" viewBox="0 0 122.16 122.16">
    <defs>
        <style>
            .cls-1 {
                fill: #059669;
            }

            .cls-2 {
                fill: #f2f1f1;
            }
        </style>
    </defs>
    <g>
        <path class="cls-1"
            d="M224.5,223.05l-3.86,1.11a3.74,3.74,0,0,0-2,1.33,14.54,14.54,0,0,0-1.43,2.79l-7.3,18-.19.46-.19.47-9.9,24.36-3.76.36-10.31-29-.23-.64h0l-.23-.65-2.79-7.84-.24-.68-.24-.67-1.32-3.72a12.24,12.24,0,0,0-1.63-3.35,4.36,4.36,0,0,0-2.09-1.3l-3.48-1-.14-1.82c3.25.09,6.49.14,9.74.14q6.26,0,12.21-.13h.43l0,.23.09.93.07.66-.46.13-.64.19-.65.18-1.76.51a2.45,2.45,0,0,0-1,.53,1.31,1.31,0,0,0-.32,1,7,7,0,0,0,.35,1.88c.1.31.21.66.34,1.05l.23.68c.07.21.14.43.22.66l.25.71,2.9,8.44.24.67.23.67,4.54,13.2c.46,1.36.88,2.68,1.26,3.94.43-1.26.88-2.56,1.36-3.9l3.08-8.2.18-.47.17-.47,5.2-13.85c.47-1.33.85-2.4,1.12-3.18a6,6,0,0,0,.42-1.87,1.26,1.26,0,0,0-.34-.93,2.43,2.43,0,0,0-1-.5l-3.41-1-.1-1.9c3.46.09,6.27.14,8.45.14s4.84-.05,7.73-.14Z"
            transform="translate(-155.62 -188.89)" />
        <path class="cls-1"
            d="M224.29,221.23q-4.33.14-7.73.14c-2.18,0-5-.05-8.45-.14l.1,1.9,3.41,1a2.43,2.43,0,0,1,1,.5,1.26,1.26,0,0,1,.34.93,6,6,0,0,1-.42,1.87c-.27.78-.65,1.85-1.12,3.18l-5.2,13.85-.17.47-.18.47-3.08,8.2c-.48,1.34-.93,2.64-1.36,3.9-.38-1.26-.8-2.58-1.26-3.94l-4.54-13.2-.23-.67-.24-.67-2.9-8.44-.25-.71c-.08-.23-.15-.45-.22-.66l-.23-.68c-.13-.39-.24-.74-.34-1.05a7,7,0,0,1-.35-1.88,1.31,1.31,0,0,1,.32-1,2.45,2.45,0,0,1,1-.53l1.76-.51.65-.18.64-.19.46-.13-.07-.66-.09-.93,0-.23h-.43q-6,.12-12.21.13c-3.25,0-6.49-.05-9.74-.14l.14,1.82,3.48,1a4.36,4.36,0,0,1,2.09,1.3,12.24,12.24,0,0,1,1.63,3.35l1.32,3.72.24.67.24.68,2.79,7.84.23.65h0l.23.64,10.31,29,3.76-.36,9.9-24.36.19-.47.19-.46,7.3-18a14.54,14.54,0,0,1,1.43-2.79,3.74,3.74,0,0,1,2-1.33l3.86-1.11Z"
            transform="translate(-155.62 -188.89)" />
        <g>
            <path class="cls-1" d="M229.34,290.53l-.47,0,.11-.22Z" transform="translate(-155.62 -188.89)" />
            <path class="cls-1"
                d="M254.44,269.89a13.46,13.46,0,0,1-2.08,7.3,17.5,17.5,0,0,1-6.1,5.64,34.65,34.65,0,0,1-10,3.65,52.05,52.05,0,0,1-5.26.86l-.59.07-.59.06q-1.87.19-3.9.27l-1,0h0l-1.08,0-1.2,0-.06-.64-.05-.58-.06-.59-.12-1.34a48.33,48.33,0,0,0,9.59-1.42h0l.43-.12.21-.07h0c.23-.06.43-.13.65-.2a21.24,21.24,0,0,0,5.73-2.68,10.38,10.38,0,0,0,4.75-8.83,8.36,8.36,0,0,0-2-5.74,4.59,4.59,0,0,0-.37-.39l-.38-.36-.29-.24a11.83,11.83,0,0,0-7.64-2.43,20.81,20.81,0,0,0-4.34.43l-.21-3.19a33.23,33.23,0,0,0,4.39-.8l.73-.2.69-.22a14.48,14.48,0,0,0,4-1.95,7.57,7.57,0,0,0,3.26-6.46,7.06,7.06,0,0,0-2.34-5.51,8.69,8.69,0,0,0-6-2.12,17.77,17.77,0,0,0-8.84,2.69L222.93,242A25.25,25.25,0,0,1,238,237.34q6.15,0,10,2.74a9,9,0,0,1,3.2,3.86c.09.21.17.43.24.65s.14.49.19.74a9.22,9.22,0,0,1,.21,2q0,5.29-5.49,8.74l-.78.46h0c-.24.14-.49.28-.75.41h0a31.91,31.91,0,0,1-5.42,2.13v.15a30,30,0,0,1,4.17.27l.51.09c.18,0,.35.06.52.09a14.7,14.7,0,0,1,5.89,2.37,9,9,0,0,1,3.77,6c0,.2.06.4.09.6s0,.38,0,.58S254.44,269.67,254.44,269.89Z"
                transform="translate(-155.62 -188.89)" />
        </g>
        <path class="cls-1"
            d="M254.42,269.23c0-.2,0-.39,0-.58s0-.4-.09-.6a9,9,0,0,0-3.77-6,14.7,14.7,0,0,0-5.89-2.37c-.17,0-.34-.07-.52-.09l-.51-.09a30,30,0,0,0-4.17-.27v-.15a31.91,31.91,0,0,0,5.42-2.13h0c.26-.13.51-.27.75-.41h0l.78-.46q5.49-3.44,5.49-8.74a9.22,9.22,0,0,0-.21-2c-.05-.25-.12-.5-.19-.74s-.15-.44-.24-.65a9,9,0,0,0-3.2-3.86q-3.86-2.75-10-2.74A25.25,25.25,0,0,0,222.93,242l1.36,2.87a17.77,17.77,0,0,1,8.84-2.69,8.69,8.69,0,0,1,6,2.12,7.06,7.06,0,0,1,2.34,5.51,7.57,7.57,0,0,1-3.26,6.46,14.48,14.48,0,0,1-4,1.95l-.69.22-.73.2a33.23,33.23,0,0,1-4.39.8l.21,3.19a20.81,20.81,0,0,1,4.34-.43,11.83,11.83,0,0,1,7.64,2.43l.29.24.38.36a4.59,4.59,0,0,1,.37.39,8.36,8.36,0,0,1,2,5.74,10.38,10.38,0,0,1-4.75,8.83,21.24,21.24,0,0,1-5.73,2.68c-.22.07-.42.14-.65.2h0l-.21.07-.43.12h0a48.33,48.33,0,0,1-9.59,1.42l.12,1.34.06.59.05.58.06.64,1.2,0,1.08,0h0l1,0q2-.08,3.9-.27l.59-.06.59-.07a52.05,52.05,0,0,0,5.26-.86,34.65,34.65,0,0,0,10-3.65,17.5,17.5,0,0,0,6.1-5.64,13.46,13.46,0,0,0,2.08-7.3C254.44,269.67,254.43,269.45,254.42,269.23Z"
            transform="translate(-155.62 -188.89)" />
    </g>
    <g>
        <path class="cls-2"
            d="M196.65,218.2h.56l.56,0,4.13-8.4,17.45,8.58,1.08,0,1.09,0-19.18-9.43,8.17-16.61-.44-.22-.45-.22-8.17,16.61-39.73-19.54-.22.45-.22.45L201,209.33Z"
            transform="translate(-155.62 -188.89)" />
        <path class="cls-2"
            d="M235.17,278.89l5-10.17a3.5,3.5,0,0,0-.29-.54,5,5,0,0,0-.33-.47l-5.8,11.79c.24-.09.47-.18.69-.28h0A7.7,7.7,0,0,0,235.17,278.89Z"
            transform="translate(-155.62 -188.89)" />
        <path class="cls-2"
            d="M277.78,192.26l-.45-.22-.45-.22-21.27,43.25-26.18-12.88,14.72-29.93-.45-.22-.45-.22-14.72,29.93-1.23-.61.07.59h0l.07.59.65.32-.49,1-.94,1.9-11.45,23.28-2.57-1.27-.19.47-.19.46,2.51,1.24L201.9,275.91l-2.68-1.32-6.72-3.3L175.71,263l8-16.35-.23-.65-.24-.65-8.46,17.21-13.1-6.44-.22.45-.22.45,13.09,6.44-18.75,38.13.45.22.44.22,18.75-38.13L193,272.64l4.32,2.13,4.14,2-12.2,24.81.45.22.45.22,12.2-24.81,17,8.38,0-.58-.05-.59-16.5-8.11,12.88-26.18,12.7,6.25.88-.12h0l.85-.14-14-6.89,3.54-7.19,1.08-2.19h0L229,223.09,255.17,236l-2.32,4.71c.11.16.22.32.32.49a4.27,4.27,0,0,1,.3.51l2.6-5.27,15,7.38.22-.45.22-.45-15-7.38Z"
            transform="translate(-155.62 -188.89)" />
        <polygon class="cls-2"
            points="22.62 42.31 22.38 41.63 6.1 33.63 5.88 34.08 5.66 34.53 22.86 42.99 22.62 42.31" />
        <polygon class="cls-2"
            points="43.62 52.64 43.85 53.31 47.56 55.14 47.74 54.67 47.91 54.19 43.38 51.97 43.62 52.64" />
        <path class="cls-2"
            d="M257.44,269.89v.26c0,.19,0,.37,0,.55l13.66,6.72.22-.45.22-.45-14.09-6.93C257.44,269.69,257.44,269.79,257.44,269.89Z"
            transform="translate(-155.62 -188.89)" />
        <path class="cls-2"
            d="M231.22,290.34l-.91.1-.85.08h-.12l-.36-.18-.11.22-.58.05-5.41,11,.45.22.45.22,5.65-11.49,41.65,20.48.22-.45.22-.45-40.29-19.81Z"
            transform="translate(-155.62 -188.89)" />
    </g>
</svg>